<svg width="325" height="484" viewBox="0 0 325 484" fill="none" xmlns="http://www.w3.org/2000/svg">
<path d="M324.269 483.46H307.271V466.194H324.269V483.46Z" fill="#FCF9F9" fill-opacity="0.1"/>
<path d="M307.271 483.46H290.273V466.194H307.271V483.46Z" fill="#FCF9F9" fill-opacity="0.1"/>
<path d="M239.279 483.46H222.281V466.194H239.279V483.46Z" fill="#FCF9F9" fill-opacity="0.1"/>
<path d="M222.281 483.46H205.283V466.194H222.281V483.46Z" fill="#FCF9F9" fill-opacity="0.1"/>
<path d="M205.283 483.46H188.285V466.194H205.283V483.46Z" fill="#FCF9F9" fill-opacity="0.1"/>
<path d="M103.294 483.46H86.2964V466.194H103.294V483.46Z" fill="#FCF9F9" fill-opacity="0.1"/>
<path d="M1.31038 483.46H-15.6877V466.194H1.31038V483.46Z" fill="#FCF9F9" fill-opacity="0.1"/>
<path d="M324.269 466.194H307.271V448.927H324.269V466.194Z" fill="#FCF9F9" fill-opacity="0.1"/>
<path d="M256.277 466.194H239.279V448.927H256.277V466.194Z" fill="#FCF9F9" fill-opacity="0.1"/>
<path d="M239.279 466.194H222.281V448.927H239.279V466.194Z" fill="#FCF9F9" fill-opacity="0.1"/>
<path d="M222.281 466.194H205.283V448.927H222.281V466.194Z" fill="#FCF9F9" fill-opacity="0.1"/>
<path d="M103.294 466.194H86.2964V448.927H103.294V466.194Z" fill="#FCF9F9" fill-opacity="0.1"/>
<path d="M86.2964 466.194H69.2983V448.927H86.2964V466.194Z" fill="#FCF9F9" fill-opacity="0.1"/>
<path d="M18.3084 466.194H1.31033V448.927H18.3084V466.194Z" fill="#FCF9F9" fill-opacity="0.1"/>
<path d="M1.31038 466.194H-15.6877V448.927H1.31038V466.194Z" fill="#FCF9F9" fill-opacity="0.1"/>
<path d="M273.275 448.928H256.277V431.661H273.275V448.928Z" fill="#FCF9F9" fill-opacity="0.1"/>
<path d="M256.277 448.928H239.279V431.661H256.277V448.928Z" fill="#FCF9F9" fill-opacity="0.1"/>
<path d="M239.279 448.928H222.281V431.661H239.279V448.928Z" fill="#FCF9F9" fill-opacity="0.1"/>
<path d="M103.294 448.928H86.2964V431.661H103.294V448.928Z" fill="#FCF9F9" fill-opacity="0.1"/>
<path d="M86.2964 448.928H69.2983V431.661H86.2964V448.928Z" fill="#FCF9F9" fill-opacity="0.1"/>
<path d="M69.2983 448.928H52.3003V431.661H69.2983V448.928Z" fill="#FCF9F9" fill-opacity="0.1"/>
<path d="M35.3064 448.928H18.3084V431.661H35.3064V448.928Z" fill="#FCF9F9" fill-opacity="0.1"/>
<path d="M18.3084 448.928H1.31033V431.661H18.3084V448.928Z" fill="#FCF9F9" fill-opacity="0.1"/>
<path d="M1.31038 448.928H-15.6877V431.661H1.31038V448.928Z" fill="#FCF9F9" fill-opacity="0.1"/>
<path d="M290.273 431.661H273.275V414.395H290.273V431.661Z" fill="#FCF9F9" fill-opacity="0.1"/>
<path d="M273.275 431.661H256.277V414.395H273.275V431.661Z" fill="#FCF9F9" fill-opacity="0.1"/>
<path d="M256.277 431.661H239.279V414.395H256.277V431.661Z" fill="#FCF9F9" fill-opacity="0.1"/>
<path d="M171.287 431.661H154.289V414.395H171.287V431.661Z" fill="#FCF9F9" fill-opacity="0.1"/>
<path d="M154.289 431.661H137.291V414.395H154.289V431.661Z" fill="#FCF9F9" fill-opacity="0.1"/>
<path d="M137.291 431.661H120.292V414.395H137.291V431.661Z" fill="#FCF9F9" fill-opacity="0.1"/>
<path d="M86.2964 431.661H69.2983V414.395H86.2964V431.661Z" fill="#FCF9F9" fill-opacity="0.1"/>
<path d="M69.2983 431.661H52.3003V414.395H69.2983V431.661Z" fill="#FCF9F9" fill-opacity="0.1"/>
<path d="M35.3064 431.661H18.3084V414.395H35.3064V431.661Z" fill="#FCF9F9" fill-opacity="0.1"/>
<path d="M18.3084 431.661H1.31033V414.395H18.3084V431.661Z" fill="#FCF9F9" fill-opacity="0.1"/>
<path d="M307.271 414.395H290.273V397.128H307.271V414.395Z" fill="#FCF9F9" fill-opacity="0.1"/>
<path d="M290.273 414.395H273.275V397.128H290.273V414.395Z" fill="#FCF9F9" fill-opacity="0.1"/>
<path d="M273.275 414.395H256.277V397.128H273.275V414.395Z" fill="#FCF9F9" fill-opacity="0.1"/>
<path d="M154.289 414.395H137.291V397.128H154.289V414.395Z" fill="#FCF9F9" fill-opacity="0.1"/>
<path d="M137.291 414.395H120.292V397.128H137.291V414.395Z" fill="#FCF9F9" fill-opacity="0.1"/>
<path d="M120.292 414.395H103.294V397.128H120.292V414.395Z" fill="#FCF9F9" fill-opacity="0.1"/>
<path d="M69.2983 414.395H52.3003V397.128H69.2983V414.395Z" fill="#FCF9F9" fill-opacity="0.1"/>
<path d="M35.3064 414.395H18.3084V397.128H35.3064V414.395Z" fill="#FCF9F9" fill-opacity="0.1"/>
<path d="M307.271 397.128H290.273V379.861H307.271V397.128Z" fill="#FCF9F9" fill-opacity="0.1"/>
<path d="M290.273 397.128H273.275V379.861H290.273V397.128Z" fill="#FCF9F9" fill-opacity="0.1"/>
<path d="M137.291 397.128H120.292V379.861H137.291V397.128Z" fill="#FCF9F9" fill-opacity="0.1"/>
<path d="M120.292 397.128H103.294V379.861H120.292V397.128Z" fill="#FCF9F9" fill-opacity="0.1"/>
<path d="M103.294 397.128H86.2964V379.861H103.294V397.128Z" fill="#FCF9F9" fill-opacity="0.1"/>
<path d="M1.31038 397.128H-15.6877V379.861H1.31038V397.128Z" fill="#FCF9F9" fill-opacity="0.1"/>
<path d="M307.271 379.862H290.273V362.595H307.271V379.862Z" fill="#FCF9F9" fill-opacity="0.1"/>
<path d="M222.281 379.862H205.283V362.595H222.281V379.862Z" fill="#FCF9F9" fill-opacity="0.1"/>
<path d="M69.2983 379.862H52.3003V362.595H69.2983V379.862Z" fill="#FCF9F9" fill-opacity="0.1"/>
<path d="M35.3064 379.862H18.3084V362.595H35.3064V379.862Z" fill="#FCF9F9" fill-opacity="0.1"/>
<path d="M222.281 362.595H205.283V345.329H222.281V362.595Z" fill="#FCF9F9" fill-opacity="0.1"/>
<path d="M205.283 362.595H188.285V345.329H205.283V362.595Z" fill="#FCF9F9" fill-opacity="0.1"/>
<path d="M86.2964 362.595H69.2983V345.329H86.2964V362.595Z" fill="#FCF9F9" fill-opacity="0.1"/>
<path d="M69.2983 362.595H52.3003V345.329H69.2983V362.595Z" fill="#FCF9F9" fill-opacity="0.1"/>
<path d="M35.3064 362.595H18.3084V345.329H35.3064V362.595Z" fill="#FCF9F9" fill-opacity="0.1"/>
<path d="M18.3084 362.595H1.31033V345.329H18.3084V362.595Z" fill="#FCF9F9" fill-opacity="0.1"/>
<path d="M222.281 345.329H205.283V328.063H222.281V345.329Z" fill="#FCF9F9" fill-opacity="0.1"/>
<path d="M205.283 345.329H188.285V328.063H205.283V345.329Z" fill="#FCF9F9" fill-opacity="0.1"/>
<path d="M188.285 345.329H171.287V328.063H188.285V345.329Z" fill="#FCF9F9" fill-opacity="0.1"/>
<path d="M103.294 345.329H86.2964V328.063H103.294V345.329Z" fill="#FCF9F9" fill-opacity="0.1"/>
<path d="M86.2964 345.329H69.2983V328.063H86.2964V345.329Z" fill="#FCF9F9" fill-opacity="0.1"/>
<path d="M18.3083 345.329H1.3103V328.063H18.3083V345.329Z" fill="#FCF9F9" fill-opacity="0.1"/>
<path d="M1.3103 345.329H-15.6877V328.063H1.3103V345.329Z" fill="#FCF9F9" fill-opacity="0.1"/>
<path d="M205.283 328.062H188.285V310.796H205.283V328.062Z" fill="#FCF9F9" fill-opacity="0.1"/>
<path d="M188.285 328.062H171.287V310.796H188.285V328.062Z" fill="#FCF9F9" fill-opacity="0.1"/>
<path d="M120.292 328.062H103.294V310.796H120.292V328.062Z" fill="#FCF9F9" fill-opacity="0.1"/>
<path d="M103.294 328.062H86.2964V310.796H103.294V328.062Z" fill="#FCF9F9" fill-opacity="0.1"/>
<path d="M1.31038 328.062H-15.6877V310.796H1.31038V328.062Z" fill="#FCF9F9" fill-opacity="0.1"/>
<path d="M273.275 310.796H256.277V293.529H273.275V310.796Z" fill="#FCF9F9" fill-opacity="0.1"/>
<path d="M256.277 310.796H239.279V293.529H256.277V310.796Z" fill="#FCF9F9" fill-opacity="0.1"/>
<path d="M239.279 310.796H222.281V293.529H239.279V310.796Z" fill="#FCF9F9" fill-opacity="0.1"/>
<path d="M188.285 310.796H171.287V293.529H188.285V310.796Z" fill="#FCF9F9" fill-opacity="0.1"/>
<path d="M137.291 310.796H120.292V293.529H137.291V310.796Z" fill="#FCF9F9" fill-opacity="0.1"/>
<path d="M120.292 310.796H103.294V293.529H120.292V310.796Z" fill="#FCF9F9" fill-opacity="0.1"/>
<path d="M324.269 293.529H307.271V276.263H324.269V293.529Z" fill="#FCF9F9" fill-opacity="0.1"/>
<path d="M256.277 293.529H239.279V276.263H256.277V293.529Z" fill="#FCF9F9" fill-opacity="0.1"/>
<path d="M239.279 293.529H222.281V276.263H239.279V293.529Z" fill="#FCF9F9" fill-opacity="0.1"/>
<path d="M222.281 293.529H205.283V276.263H222.281V293.529Z" fill="#FCF9F9" fill-opacity="0.1"/>
<path d="M154.289 293.529H137.291V276.263H154.289V293.529Z" fill="#FCF9F9" fill-opacity="0.1"/>
<path d="M137.291 293.529H120.292V276.263H137.291V293.529Z" fill="#FCF9F9" fill-opacity="0.1"/>
<path d="M324.269 276.263H307.271V258.997H324.269V276.263Z" fill="#FCF9F9" fill-opacity="0.1"/>
<path d="M307.271 276.263H290.273V258.997H307.271V276.263Z" fill="#FCF9F9" fill-opacity="0.1"/>
<path d="M239.279 276.263H222.281V258.997H239.279V276.263Z" fill="#FCF9F9" fill-opacity="0.1"/>
<path d="M222.281 276.263H205.283V258.997H222.281V276.263Z" fill="#FCF9F9" fill-opacity="0.1"/>
<path d="M205.283 276.263H188.285V258.997H205.283V276.263Z" fill="#FCF9F9" fill-opacity="0.1"/>
<path d="M171.287 276.263H154.289V258.997H171.287V276.263Z" fill="#FCF9F9" fill-opacity="0.1"/>
<path d="M154.289 276.263H137.291V258.997H154.289V276.263Z" fill="#FCF9F9" fill-opacity="0.1"/>
<path d="M52.3045 276.263H35.3065V258.997H52.3045V276.263Z" fill="#FCF9F9" fill-opacity="0.1"/>
<path d="M324.269 258.997H307.271V241.73H324.269V258.997Z" fill="#FCF9F9" fill-opacity="0.1"/>
<path d="M307.271 258.997H290.273V241.73H307.271V258.997Z" fill="#FCF9F9" fill-opacity="0.1"/>
<path d="M290.273 258.997H273.275V241.73H290.273V258.997Z" fill="#FCF9F9" fill-opacity="0.1"/>
<path d="M69.2983 258.997H52.3003V241.73H69.2983V258.997Z" fill="#FCF9F9" fill-opacity="0.1"/>
<path d="M52.3045 258.997H35.3065V241.73H52.3045V258.997Z" fill="#FCF9F9" fill-opacity="0.1"/>
<path d="M35.3064 258.997H18.3084V241.73H35.3064V258.997Z" fill="#FCF9F9" fill-opacity="0.1"/>
<path d="M324.269 241.73H307.271V224.464H324.269V241.73Z" fill="#FCF9F9" fill-opacity="0.1"/>
<path d="M307.271 241.73H290.273V224.464H307.271V241.73Z" fill="#FCF9F9" fill-opacity="0.1"/>
<path d="M239.279 241.73H222.281V224.464H239.279V241.73Z" fill="#FCF9F9" fill-opacity="0.1"/>
<path d="M222.281 241.73H205.283V224.464H222.281V241.73Z" fill="#FCF9F9" fill-opacity="0.1"/>
<path d="M205.283 241.73H188.285V224.464H205.283V241.73Z" fill="#FCF9F9" fill-opacity="0.1"/>
<path d="M171.287 241.73H154.289V224.464H171.287V241.73Z" fill="#FCF9F9" fill-opacity="0.1"/>
<path d="M154.289 241.73H137.291V224.464H154.289V241.73Z" fill="#FCF9F9" fill-opacity="0.1"/>
<path d="M52.3045 241.73H35.3065V224.464H52.3045V241.73Z" fill="#FCF9F9" fill-opacity="0.1"/>
<path d="M324.269 224.464H307.271V207.197H324.269V224.464Z" fill="#FCF9F9" fill-opacity="0.1"/>
<path d="M256.277 224.464H239.279V207.197H256.277V224.464Z" fill="#FCF9F9" fill-opacity="0.1"/>
<path d="M239.279 224.464H222.281V207.197H239.279V224.464Z" fill="#FCF9F9" fill-opacity="0.1"/>
<path d="M222.281 224.464H205.283V207.197H222.281V224.464Z" fill="#FCF9F9" fill-opacity="0.1"/>
<path d="M154.289 224.464H137.291V207.197H154.289V224.464Z" fill="#FCF9F9" fill-opacity="0.1"/>
<path d="M137.291 224.464H120.292V207.197H137.291V224.464Z" fill="#FCF9F9" fill-opacity="0.1"/>
<path d="M273.275 207.197H256.277V189.931H273.275V207.197Z" fill="#FCF9F9" fill-opacity="0.1"/>
<path d="M256.277 207.197H239.279V189.931H256.277V207.197Z" fill="#FCF9F9" fill-opacity="0.1"/>
<path d="M239.279 207.197H222.281V189.931H239.279V207.197Z" fill="#FCF9F9" fill-opacity="0.1"/>
<path d="M188.285 207.197H171.287V189.931H188.285V207.197Z" fill="#FCF9F9" fill-opacity="0.1"/>
<path d="M137.291 207.197H120.292V189.931H137.291V207.197Z" fill="#FCF9F9" fill-opacity="0.1"/>
<path d="M120.292 207.197H103.294V189.931H120.292V207.197Z" fill="#FCF9F9" fill-opacity="0.1"/>
<path d="M205.283 189.931H188.285V172.665H205.283V189.931Z" fill="#FCF9F9" fill-opacity="0.1"/>
<path d="M188.285 189.931H171.287V172.665H188.285V189.931Z" fill="#FCF9F9" fill-opacity="0.1"/>
<path d="M120.292 189.931H103.294V172.665H120.292V189.931Z" fill="#FCF9F9" fill-opacity="0.1"/>
<path d="M103.294 189.931H86.2964V172.665H103.294V189.931Z" fill="#FCF9F9" fill-opacity="0.1"/>
<path d="M1.31038 189.931H-15.6877V172.665H1.31038V189.931Z" fill="#FCF9F9" fill-opacity="0.1"/>
<path d="M222.281 172.665H205.283V155.398H222.281V172.665Z" fill="#FCF9F9" fill-opacity="0.1"/>
<path d="M205.283 172.665H188.285V155.398H205.283V172.665Z" fill="#FCF9F9" fill-opacity="0.1"/>
<path d="M188.285 172.665H171.287V155.398H188.285V172.665Z" fill="#FCF9F9" fill-opacity="0.1"/>
<path d="M103.294 172.665H86.2964V155.398H103.294V172.665Z" fill="#FCF9F9" fill-opacity="0.1"/>
<path d="M86.2964 172.665H69.2983V155.398H86.2964V172.665Z" fill="#FCF9F9" fill-opacity="0.1"/>
<path d="M18.3084 172.665H1.31033V155.398H18.3084V172.665Z" fill="#FCF9F9" fill-opacity="0.1"/>
<path d="M1.31038 172.665H-15.6877V155.398H1.31038V172.665Z" fill="#FCF9F9" fill-opacity="0.1"/>
<path d="M222.281 155.398H205.283V138.132H222.281V155.398Z" fill="#FCF9F9" fill-opacity="0.1"/>
<path d="M205.283 155.398H188.285V138.132H205.283V155.398Z" fill="#FCF9F9" fill-opacity="0.1"/>
<path d="M86.2964 155.398H69.2983V138.132H86.2964V155.398Z" fill="#FCF9F9" fill-opacity="0.1"/>
<path d="M69.2983 155.398H52.3003V138.132H69.2983V155.398Z" fill="#FCF9F9" fill-opacity="0.1"/>
<path d="M35.3064 155.398H18.3084V138.132H35.3064V155.398Z" fill="#FCF9F9" fill-opacity="0.1"/>
<path d="M18.3084 155.398H1.31033V138.132H18.3084V155.398Z" fill="#FCF9F9" fill-opacity="0.1"/>
<path d="M222.281 138.132H205.283V120.865H222.281V138.132Z" fill="#FCF9F9" fill-opacity="0.1"/>
<path d="M69.2983 138.132H52.3003V120.865H69.2983V138.132Z" fill="#FCF9F9" fill-opacity="0.1"/>
<path d="M35.3064 138.132H18.3083V120.865H35.3064V138.132Z" fill="#FCF9F9" fill-opacity="0.1"/>
<path d="M307.271 120.865H290.273V103.599H307.271V120.865Z" fill="#FCF9F9" fill-opacity="0.1"/>
<path d="M307.271 103.599H290.273V86.3322H307.271V103.599Z" fill="#FCF9F9" fill-opacity="0.1"/>
<path d="M290.273 103.599H273.275V86.3322H290.273V103.599Z" fill="#FCF9F9" fill-opacity="0.1"/>
<path d="M137.291 103.599H120.292V86.3322H137.291V103.599Z" fill="#FCF9F9" fill-opacity="0.1"/>
<path d="M120.292 103.599H103.294V86.3322H120.292V103.599Z" fill="#FCF9F9" fill-opacity="0.1"/>
<path d="M103.294 103.599H86.2964V86.3322H103.294V103.599Z" fill="#FCF9F9" fill-opacity="0.1"/>
<path d="M1.31038 103.599H-15.6877V86.3322H1.31038V103.599Z" fill="#FCF9F9" fill-opacity="0.1"/>
<path d="M307.271 86.332H290.273V69.0656H307.271V86.332Z" fill="#FCF9F9" fill-opacity="0.1"/>
<path d="M290.273 86.332H273.275V69.0656H290.273V86.332Z" fill="#FCF9F9" fill-opacity="0.1"/>
<path d="M273.275 86.332H256.277V69.0656H273.275V86.332Z" fill="#FCF9F9" fill-opacity="0.1"/>
<path d="M154.289 86.332H137.291V69.0656H154.289V86.332Z" fill="#FCF9F9" fill-opacity="0.1"/>
<path d="M137.291 86.332H120.292V69.0656H137.291V86.332Z" fill="#FCF9F9" fill-opacity="0.1"/>
<path d="M120.292 86.332H103.294V69.0656H120.292V86.332Z" fill="#FCF9F9" fill-opacity="0.1"/>
<path d="M69.2983 86.332H52.3003V69.0656H69.2983V86.332Z" fill="#FCF9F9" fill-opacity="0.1"/>
<path d="M35.3064 86.332H18.3084V69.0656H35.3064V86.332Z" fill="#FCF9F9" fill-opacity="0.1"/>
<path d="M290.273 69.0659H273.275V51.7995H290.273V69.0659Z" fill="#FCF9F9" fill-opacity="0.1"/>
<path d="M273.275 69.0659H256.277V51.7995H273.275V69.0659Z" fill="#FCF9F9" fill-opacity="0.1"/>
<path d="M256.277 69.0659H239.279V51.7995H256.277V69.0659Z" fill="#FCF9F9" fill-opacity="0.1"/>
<path d="M171.287 69.0659H154.289V51.7995H171.287V69.0659Z" fill="#FCF9F9" fill-opacity="0.1"/>
<path d="M154.289 69.0659H137.291V51.7995H154.289V69.0659Z" fill="#FCF9F9" fill-opacity="0.1"/>
<path d="M137.291 69.0659H120.292V51.7995H137.291V69.0659Z" fill="#FCF9F9" fill-opacity="0.1"/>
<path d="M86.2964 69.0659H69.2983V51.7995H86.2964V69.0659Z" fill="#FCF9F9" fill-opacity="0.1"/>
<path d="M69.2983 69.0659H52.3003V51.7995H69.2983V69.0659Z" fill="#FCF9F9" fill-opacity="0.1"/>
<path d="M35.3064 69.0659H18.3084V51.7995H35.3064V69.0659Z" fill="#FCF9F9" fill-opacity="0.1"/>
<path d="M18.3084 69.0659H1.31033V51.7995H18.3084V69.0659Z" fill="#FCF9F9" fill-opacity="0.1"/>
<path d="M273.275 51.7993H256.277V34.5329H273.275V51.7993Z" fill="#FCF9F9" fill-opacity="0.1"/>
<path d="M256.277 51.7993H239.279V34.5329H256.277V51.7993Z" fill="#FCF9F9" fill-opacity="0.1"/>
<path d="M239.279 51.7993H222.281V34.5329H239.279V51.7993Z" fill="#FCF9F9" fill-opacity="0.1"/>
<path d="M103.294 51.7993H86.2964V34.5329H103.294V51.7993Z" fill="#FCF9F9" fill-opacity="0.1"/>
<path d="M86.2964 51.7993H69.2983V34.5329H86.2964V51.7993Z" fill="#FCF9F9" fill-opacity="0.1"/>
<path d="M69.2983 51.7993H52.3003V34.5329H69.2983V51.7993Z" fill="#FCF9F9" fill-opacity="0.1"/>
<path d="M35.3064 51.7993H18.3084V34.5329H35.3064V51.7993Z" fill="#FCF9F9" fill-opacity="0.1"/>
<path d="M18.3084 51.7993H1.31033V34.5329H18.3084V51.7993Z" fill="#FCF9F9" fill-opacity="0.1"/>
<path d="M1.31038 51.7993H-15.6877V34.5329H1.31038V51.7993Z" fill="#FCF9F9" fill-opacity="0.1"/>
<path d="M324.269 34.5327H307.271V17.2663H324.269V34.5327Z" fill="#FCF9F9" fill-opacity="0.1"/>
<path d="M256.277 34.5327H239.279V17.2663H256.277V34.5327Z" fill="#FCF9F9" fill-opacity="0.1"/>
<path d="M239.279 34.5327H222.281V17.2663H239.279V34.5327Z" fill="#FCF9F9" fill-opacity="0.1"/>
<path d="M222.281 34.5327H205.283V17.2663H222.281V34.5327Z" fill="#FCF9F9" fill-opacity="0.1"/>
<path d="M103.294 34.5327H86.2964V17.2663H103.294V34.5327Z" fill="#FCF9F9" fill-opacity="0.1"/>
<path d="M86.2964 34.5327H69.2983V17.2663H86.2964V34.5327Z" fill="#FCF9F9" fill-opacity="0.1"/>
<path d="M18.3084 34.5327H1.31033V17.2663H18.3084V34.5327Z" fill="#FCF9F9" fill-opacity="0.1"/>
<path d="M1.31038 34.5327H-15.6877V17.2663H1.31038V34.5327Z" fill="#FCF9F9" fill-opacity="0.1"/>
<path d="M324.269 17.2666H307.271V0.000160217H324.269V17.2666Z" fill="#FCF9F9" fill-opacity="0.1"/>
<path d="M307.271 17.2666H290.273V0.000160217H307.271V17.2666Z" fill="#FCF9F9" fill-opacity="0.1"/>
<path d="M239.279 17.2666H222.281V0.000160217H239.279V17.2666Z" fill="#FCF9F9" fill-opacity="0.1"/>
<path d="M222.281 17.2666H205.283V0.000160217H222.281V17.2666Z" fill="#FCF9F9" fill-opacity="0.1"/>
<path d="M205.283 17.2666H188.285V0.000160217H205.283V17.2666Z" fill="#FCF9F9" fill-opacity="0.1"/>
<path d="M103.294 17.2666H86.2964V0.000160217H103.294V17.2666Z" fill="#FCF9F9" fill-opacity="0.1"/>
<path d="M1.3103 17.2666H-15.6877V0.000160217H1.3103V17.2666Z" fill="#FCF9F9" fill-opacity="0.1"/>
</svg>
